<svg xmlns="http://www.w3.org/2000/svg" viewBox="0 0 800 1000" role="img" aria-labelledby="title desc">
  <title id="title">Илья Соколов</title><desc id="desc">Молодой журналист в светлой рубашке и тёмной куртке.</desc>
  <defs>
    <linearGradient id="bg" x1="0" y1="0" x2="1" y2="1"><stop stop-color="#1e2d35"/><stop offset=".62" stop-color="#0f171d"/><stop offset="1" stop-color="#05080b"/></linearGradient>
    <radialGradient id="skin"><stop stop-color="#d9ab87"/><stop offset=".72" stop-color="#a97759"/><stop offset="1" stop-color="#6e4838"/></radialGradient>
    <linearGradient id="jacket" x1="0" y1="0" x2="1" y2="1"><stop stop-color="#33444d"/><stop offset="1" stop-color="#10161b"/></linearGradient>
    <filter id="grain"><feTurbulence type="fractalNoise" baseFrequency=".8" numOctaves="3" seed="29"/><feColorMatrix type="saturate" values="0"/><feComponentTransfer><feFuncA type="table" tableValues="0 .05"/></feComponentTransfer></filter>
  </defs>
  <rect width="800" height="1000" fill="url(#bg)"/>
  <ellipse cx="402" cy="364" rx="315" ry="370" fill="#4a6f7d" opacity=".12"/>
  <path d="M67 1000c27-226 140-344 333-354 193 9 306 127 331 354z" fill="url(#jacket)"/>
  <path d="M331 590h140v129c-34 41-103 41-140 0z" fill="#a77659"/>
  <path d="M246 260c9-124 88-198 181-198 115 0 185 84 183 220l-20 216c-12 103-78 164-173 166-94-2-160-61-173-162z" fill="url(#skin)"/>
  <path d="M231 281c-2-161 90-243 201-243 126 0 204 90 190 250-31-19-61-48-82-86-64 34-167 60-309 79z" fill="#25211f"/>
  <path d="M247 301c-35 10-48 63-31 110 11 31 33 49 56 46zM587 301c36 11 48 64 30 111-12 31-34 49-56 45z" fill="#98634b"/>
  <path d="M286 327c43-31 87-30 126-4M461 325c43-28 89-26 126 7" fill="none" stroke="#3c2a24" stroke-width="15" stroke-linecap="round"/>
  <path d="M303 361c29-17 64-16 92 1-29 23-65 23-92-1zM477 360c29-16 64-14 92 3-30 22-65 20-92-3z" fill="#f4efea"/>
  <circle cx="357" cy="363" r="14" fill="#3b4b4f"/><circle cx="531" cy="363" r="14" fill="#3b4b4f"/><circle cx="358" cy="364" r="5"/><circle cx="532" cy="364" r="5"/>
  <path d="M438 365c-8 47-14 87-8 109 15 10 34 11 52 5" fill="none" stroke="#7e5242" stroke-width="11" stroke-linecap="round"/>
  <path d="M336 526c61 19 120 18 178-4-31 46-137 55-178 4z" fill="#5e3931"/>
  <path d="M351 532c45 8 98 6 143-4" stroke="#d8af9b" stroke-width="7" opacity=".44"/>
  <path d="M289 573c38 46 82 67 136 67 58 0 104-24 143-72-11 70-60 115-143 119-78-3-127-46-136-114z" fill="#3b2d28" opacity=".25"/>
  <path d="M200 999c29-154 86-247 177-293l26 88-86 205zM600 999c-29-154-86-247-178-293l-24 88 85 205z" fill="#40535c"/>
  <path d="M355 718h91l-45 82z" fill="#c7c9c6"/><path d="M402 794v205" stroke="#11171b" stroke-width="7"/>
  <path d="M0 0h800v1000H0z" filter="url(#grain)" opacity=".6"/>
  <path d="M20 20h760v960H20z" fill="none" stroke="#58727c" stroke-width="4" opacity=".46"/>
</svg>