<svg xmlns="http://www.w3.org/2000/svg" viewBox="0 0 1600 1000" role="img" aria-labelledby="t d"><title id="t">Архивный стол материалов 2015 года</title><desc id="d">Папки, контактный лист, диктофон и журнал выдачи носителей на тёмном столе.</desc><defs><linearGradient id="wood" x2="0" y2="1"><stop stop-color="#17272a"/><stop offset="1" stop-color="#071113"/></linearGradient><filter id="shadow"><feDropShadow dx="0" dy="20" stdDeviation="18" flood-opacity=".5"/></filter><pattern id="grain" width="90" height="20" patternUnits="userSpaceOnUse"><path d="M0 10c25-8 55 8 90 0" fill="none" stroke="#b6d8d5" stroke-opacity=".04"/></pattern></defs><rect width="1600" height="1000" fill="url(#wood)"/><rect width="1600" height="1000" fill="url(#grain)"/><g filter="url(#shadow)"><path d="M130 210h620l65 610H190z" fill="#9d7b45"/><path d="M160 245h560l44 510H220z" fill="#d2bd8f"/><path d="M205 290h470" stroke="#695b43" stroke-width="4"/><text x="215" y="340" font-family="monospace" font-size="28" fill="#493f32">BOX 15-B / ОПИСЬ ОРИГИНАЛОВ</text><text x="215" y="390" font-family="monospace" font-size="25" fill="#5b4b37">48 ПОЗИЦИЙ</text><text x="215" y="440" font-family="monospace" font-size="22" fill="#7e332e">B-17 — ОРИГИНАЛ ОТДЕЛЬНО</text><g fill="#635541" font-family="monospace" font-size="18"><text x="215" y="500">B-14  NEGATIVE</text><text x="215" y="540">B-15  NEGATIVE</text><text x="215" y="580">B-16  CONTACT</text><text x="215" y="620">B-17  CARD 314-17</text><text x="215" y="660">B-18  CONTACT</text></g></g><g transform="translate(780 150) rotate(4)" filter="url(#shadow)"><rect width="610" height="470" rx="10" fill="#d6d0bf"/><text x="35" y="55" font-family="monospace" font-size="22" fill="#3d4947">КОНТАКТНЫЙ ЛИСТ B</text><g fill="#243133"><rect x="40" y="90" width="150" height="110"/><rect x="230" y="90" width="150" height="110"/><rect x="420" y="90" width="150" height="110"/><rect x="40" y="250" width="150" height="110"/><rect x="230" y="250" width="150" height="110" fill="none" stroke="#b33f38" stroke-width="8" stroke-dasharray="14 10"/><rect x="420" y="250" width="150" height="110"/></g><g font-family="monospace" font-size="18" fill="#384341" text-anchor="middle"><text x="115" y="225">B-14</text><text x="305" y="225">B-15</text><text x="495" y="225">B-16</text><text x="115" y="385">B-18</text><text x="305" y="385" fill="#a33832">B-17 / ОТДЕЛЬНО</text><text x="495" y="385">B-19</text></g><text x="305" y="430" fill="#a33832" font-family="monospace" font-size="22" text-anchor="middle">А.Б. · 314-17</text></g><g transform="translate(930 690)" filter="url(#shadow)"><rect width="360" height="170" rx="20" fill="#111a1c" stroke="#4b6868" stroke-width="4"/><circle cx="80" cy="85" r="45" fill="#05090a" stroke="#6d8988" stroke-width="5"/><rect x="165" y="42" width="150" height="35" rx="4" fill="#16312f"/><text x="240" y="66" fill="#72d5c8" font-family="monospace" font-size="18" text-anchor="middle">21:42:08</text><text x="175" y="125" fill="#7d9a98" font-family="monospace" font-size="15">SERVICE CORRIDOR</text></g><g transform="translate(1320 650) rotate(-7)" filter="url(#shadow)"><rect width="160" height="230" rx="8" fill="#2b3638"/><path d="M22 26h116v174H22z" fill="#0a1112"/><text x="80" y="88" fill="#e2c276" font-family="monospace" font-size="20" text-anchor="middle">314-17</text><text x="80" y="122" fill="#8fb3b0" font-family="monospace" font-size="14" text-anchor="middle">NOT RETURNED</text><circle cx="80" cy="176" r="18" fill="#7d2f2a"/></g><text x="90" y="85" fill="#7ed8d0" font-family="monospace" font-size="27" letter-spacing="7">ARCHIVE / BOX 15-B / CHAIN OF CUSTODY</text></svg>